<svg width="20" height="22" viewBox="0 0 20 22" fill="none" xmlns="http://www.w3.org/2000/svg">
<g id="briefcase">
<g id="Subtract">
<path d="M0.704216 11.5398C0.369481 11.4067 0 11.6496 0 12.0098V17.375C0 19.5842 1.79086 21.375 4 21.375H16C18.2091 21.375 20 19.5842 20 17.375V12.0098C20 11.6496 19.6305 11.4068 19.2958 11.5398C18.029 12.0433 16.4079 12.5628 14.5036 12.9087C13.7992 13.0367 13.2884 13.6421 12.9597 14.278C12.461 15.2429 11.454 15.9024 10.293 15.9024H9.70694C8.5459 15.9024 7.53891 15.2429 7.0402 14.278C6.71148 13.642 6.20068 13.0367 5.4963 12.9087C3.59207 12.5627 1.97099 12.0432 0.704216 11.5398Z" fill="#7152F3"/>
</g>
<path id="Subtract_2" fill-rule="evenodd" clip-rule="evenodd" d="M16 5.375H4C1.79086 5.375 0 7.16586 0 9.375C0 9.59208 0.107423 9.79351 0.29492 9.9029C1.14278 10.3976 3.7673 11.7693 7.49817 12.2321V12.6891C7.49817 13.7937 8.3936 14.6891 9.49817 14.6891H10.5016C11.6062 14.6891 12.5016 13.7937 12.5016 12.6891V12.2322C16.2326 11.7694 18.8572 10.3976 19.7051 9.9029C19.8926 9.79351 20 9.59208 20 9.375C20 7.16586 18.2091 5.375 16 5.375ZM9.07512 11.4694C8.96467 11.4694 8.87512 11.5589 8.87512 11.6694V12.6582C8.87512 13.1 9.23329 13.4582 9.67512 13.4582H10.3248C10.7666 13.4582 11.1248 13.1 11.1248 12.6582V11.6694C11.1248 11.5589 11.0352 11.4694 10.9248 11.4694H9.07512Z" fill="#7152F3"/>
<path id="Vector 994 (Stroke)" fill-rule="evenodd" clip-rule="evenodd" d="M9 2.125C7.75736 2.125 6.75 3.13236 6.75 4.375V5.375C6.75 5.78921 6.41421 6.125 6 6.125C5.58579 6.125 5.25 5.78921 5.25 5.375V4.375C5.25 2.30393 6.92893 0.625 9 0.625H11C13.0711 0.625 14.75 2.30393 14.75 4.375V5.375C14.75 5.78921 14.4142 6.125 14 6.125C13.5858 6.125 13.25 5.78921 13.25 5.375V4.375C13.25 3.13236 12.2426 2.125 11 2.125H9Z" fill="#7152F3"/>
</g>
</svg>
