<svg width="20" height="20" viewBox="0 0 20 20" fill="none" xmlns="http://www.w3.org/2000/svg">
<g clip-path="url(#clip0_394_408)">
<path d="M6.66675 5.00008V4.16675C6.66675 2.78604 7.78604 1.66675 9.16675 1.66675H10.8334C12.2141 1.66675 13.3334 2.78604 13.3334 4.16675V5.00008M1.66675 8.62298C1.66675 8.62298 4.26512 10.3538 8.3148 10.7591M18.3334 8.62298C18.3334 8.62298 15.735 10.3538 11.6854 10.7591M5.00008 18.3334H15.0001C16.841 18.3334 18.3334 16.841 18.3334 15.0001V8.33342C18.3334 6.49247 16.841 5.00008 15.0001 5.00008H5.00008C3.15913 5.00008 1.66675 6.49247 1.66675 8.33342V15.0001C1.66675 16.841 3.15913 18.3334 5.00008 18.3334Z" stroke="#7152F3" stroke-width="1.5" stroke-linecap="round"/>
<path d="M11.6666 10.1334V10.9667C11.6666 10.975 11.6666 10.975 11.6666 10.9834C11.6666 11.8917 11.6583 12.6334 9.99992 12.6334C8.34992 12.6334 8.33325 11.9 8.33325 10.9917V10.1334C8.33325 9.30005 8.33325 9.30005 9.16659 9.30005H10.8333C11.6666 9.30005 11.6666 9.30005 11.6666 10.1334Z" stroke="#7152F3" stroke-width="1.5" stroke-miterlimit="10" stroke-linecap="round" stroke-linejoin="round"/>
</g>
<defs>
<clipPath id="clip0_394_408">
<rect width="20" height="20" fill="white"/>
</clipPath>
</defs>
</svg>
