<svg width="19" height="22" viewBox="0 0 19 22" fill="none" xmlns="http://www.w3.org/2000/svg">
<g id="notes">
<path id="Combo shape" fill-rule="evenodd" clip-rule="evenodd" d="M13.2817 0.75C13.696 0.75 14.0317 1.08579 14.0317 1.5V3H14.2817C16.4909 3 18.2817 4.79086 18.2817 7V17.5C18.2817 19.7091 16.4909 21.5 14.2817 21.5H4.28174C2.0726 21.5 0.281738 19.7091 0.281738 17.5V7C0.281738 4.79086 2.0726 3 4.28174 3H4.53174V1.5C4.53174 1.08579 4.86752 0.75 5.28174 0.75C5.69595 0.75 6.03174 1.08579 6.03174 1.5V3H12.5317V1.5C12.5317 1.08579 12.8675 0.75 13.2817 0.75ZM15.0317 12.5C15.0317 12.9142 14.696 13.25 14.2817 13.25H8.28174C7.86752 13.25 7.53174 12.9142 7.53174 12.5C7.53174 12.0858 7.86752 11.75 8.28174 11.75H14.2817C14.696 11.75 15.0317 12.0858 15.0317 12.5ZM14.2817 9.25C14.696 9.25 15.0317 8.91421 15.0317 8.5C15.0317 8.08579 14.696 7.75 14.2817 7.75H8.28174C7.86752 7.75 7.53174 8.08579 7.53174 8.5C7.53174 8.91421 7.86752 9.25 8.28174 9.25H14.2817ZM15.0317 16.5C15.0317 16.9142 14.696 17.25 14.2817 17.25H8.28174C7.86752 17.25 7.53174 16.9142 7.53174 16.5C7.53174 16.0858 7.86752 15.75 8.28174 15.75H14.2817C14.696 15.75 15.0317 16.0858 15.0317 16.5ZM5.78174 8.5C5.78174 9.05228 5.33402 9.5 4.78174 9.5C4.22945 9.5 3.78174 9.05228 3.78174 8.5C3.78174 7.94772 4.22945 7.5 4.78174 7.5C5.33402 7.5 5.78174 7.94772 5.78174 8.5ZM4.78174 13.5C5.33402 13.5 5.78174 13.0523 5.78174 12.5C5.78174 11.9477 5.33402 11.5 4.78174 11.5C4.22945 11.5 3.78174 11.9477 3.78174 12.5C3.78174 13.0523 4.22945 13.5 4.78174 13.5ZM5.78174 16.5C5.78174 17.0523 5.33402 17.5 4.78174 17.5C4.22945 17.5 3.78174 17.0523 3.78174 16.5C3.78174 15.9477 4.22945 15.5 4.78174 15.5C5.33402 15.5 5.78174 15.9477 5.78174 16.5Z" fill="#7152F3"/>
</g>
</svg>
