<svg width="18" height="21" viewBox="0 0 18 21" fill="none" xmlns="http://www.w3.org/2000/svg">
<g id="calendar check">
<path id="combo sape" fill-rule="evenodd" clip-rule="evenodd" d="M5.75 1C5.75 0.585786 5.41421 0.25 5 0.25C4.58579 0.25 4.25 0.585786 4.25 1V2.5H4C1.79086 2.5 0 4.29086 0 6.5V7.25H18V6.5C18 4.29086 16.2091 2.5 14 2.5H13.75V1C13.75 0.585786 13.4142 0.25 13 0.25C12.5858 0.25 12.25 0.585786 12.25 1V2.5H5.75V1ZM18 8.75H0V17C0 19.2091 1.79086 21 4 21H14C16.2091 21 18 19.2091 18 17V8.75ZM12.5645 12.4939C12.8372 12.1822 12.8056 11.7083 12.4939 11.4356C12.1822 11.1628 11.7084 11.1944 11.4356 11.5061L8.56569 14.786C8.47759 14.8867 8.32584 14.9002 8.22137 14.8166L6.46855 13.4144C6.1451 13.1556 5.67313 13.208 5.41438 13.5315C5.15562 13.8549 5.20806 14.3269 5.53151 14.5857L7.28433 15.9879C8.01561 16.5729 9.07786 16.4786 9.69455 15.7738L12.5645 12.4939Z" fill="#7152F3"/>
</g>
</svg>
