<svg width="19" height="21" viewBox="0 0 19 21" fill="none" xmlns="http://www.w3.org/2000/svg">
<g id="task">
<path id="Combo shape" fill-rule="evenodd" clip-rule="evenodd" d="M5.28174 2.5C5.28174 1.39543 6.17717 0.5 7.28174 0.5H11.2817C12.3863 0.5 13.2817 1.39543 13.2817 2.5C13.2817 3.60457 12.3863 4.5 11.2817 4.5H7.28174C6.17717 4.5 5.28174 3.60457 5.28174 2.5ZM3.78187 2.53101C1.80865 2.777 0.281738 4.46022 0.281738 6.50008V16.5001C0.281738 18.7092 2.0726 20.5001 4.28174 20.5001H14.2817C16.4909 20.5001 18.2817 18.7092 18.2817 16.5001V6.50008C18.2817 4.46022 16.7548 2.777 14.7816 2.53101C14.765 4.44976 13.2044 6.00008 11.2817 6.00008H7.28174C5.35906 6.00008 3.79848 4.44976 3.78187 2.53101ZM5.28174 7.75C4.86752 7.75 4.53174 8.08579 4.53174 8.5C4.53174 8.91421 4.86752 9.25 5.28174 9.25H13.2817C13.696 9.25 14.0317 8.91421 14.0317 8.5C14.0317 8.08579 13.696 7.75 13.2817 7.75H5.28174ZM4.53174 12.5C4.53174 12.0858 4.86752 11.75 5.28174 11.75H13.2817C13.696 11.75 14.0317 12.0858 14.0317 12.5C14.0317 12.9142 13.696 13.25 13.2817 13.25H5.28174C4.86752 13.25 4.53174 12.9142 4.53174 12.5ZM5.28174 15.75C4.86752 15.75 4.53174 16.0858 4.53174 16.5C4.53174 16.9142 4.86752 17.25 5.28174 17.25H9.28174C9.69595 17.25 10.0317 16.9142 10.0317 16.5C10.0317 16.0858 9.69595 15.75 9.28174 15.75H5.28174Z" fill="#7152F3"/>
</g>
</svg>
