<svg width="82" height="82" viewBox="0 0 82 82" fill="none" xmlns="http://www.w3.org/2000/svg">
<g id="ph:meta-logo-bold">
<path id="Vector" d="M77.5546 47.7153C77.5546 53.0221 76.4926 57.5882 74.4821 60.9223C71.9012 65.2048 67.8896 67.4706 62.8823 67.4706C53.3245 67.4706 46.8991 55.48 40.0987 42.7868C35.1575 33.5662 29.0251 22.0924 23.9831 22.0924C21.5535 22.0924 18.5756 25.0452 16.2121 29.7973C13.5087 35.3876 12.0733 41.506 12.0083 47.7153C12.0083 51.5914 12.7142 54.8939 13.9936 57.0179C15.1817 58.9906 16.8109 59.9076 19.1176 59.9076C23.4506 59.9076 28.7699 50.7689 30.5188 47.7784C31.0241 46.9117 31.8529 46.2812 32.823 46.0256C33.7931 45.77 34.8249 45.9102 35.6916 46.4154C36.5583 46.9207 37.1888 47.7495 37.4444 48.7196C37.7 49.6897 37.5598 50.7216 37.0546 51.5882C34.2468 56.4034 31.8455 59.7815 29.4915 62.2332C26.1102 65.7563 22.7226 67.4706 19.1176 67.4706C14.1102 67.4706 10.0987 65.2048 7.51779 60.9223C5.50729 57.5882 4.44531 53.0221 4.44531 47.7153C4.44531 33.8592 11.876 14.5294 23.9831 14.5294C33.5409 14.5294 39.9663 26.52 46.7667 39.2132C51.7142 48.4338 57.8497 59.9076 62.8823 59.9076C65.189 59.9076 66.8182 58.9906 68.0062 57.0179C69.2856 54.8939 69.9915 51.5914 69.9915 47.7153C69.9276 41.5062 68.4932 35.3879 65.7909 29.7973C63.4275 25.0452 60.4495 22.0924 58.0167 22.0924C56.2142 22.0924 54.043 23.6681 51.5598 26.7658C50.933 27.5489 50.0207 28.0509 49.0238 28.1614C48.0268 28.2719 47.0267 27.9819 46.2436 27.355C45.4605 26.7282 44.9585 25.816 44.848 24.819C44.7375 23.822 45.0275 22.822 45.6543 22.0389C49.7037 16.9874 53.7468 14.5294 58.0167 14.5294C63.5787 14.5294 68.731 18.7553 72.5598 26.4286C75.7715 33.0699 77.477 40.3386 77.5546 47.7153Z" fill="white"/>
</g>
</svg>
